<svg width="16" height="16" viewBox="0 0 16 16" fill="none" xmlns="http://www.w3.org/2000/svg">
<g clip-path="url(#clip0_0_66)">
<path d="M16.0001 15.0574L11.8254 10.8827C12.9098 9.55645 13.443 7.86411 13.3147 6.15576C13.1863 4.44741 12.4062 2.85374 11.1358 1.7044C9.8654 0.55506 8.20183 -0.0620188 6.48919 -0.0191976C4.77656 0.0236236 3.1459 0.723069 1.93451 1.93446C0.723114 3.14585 0.0236694 4.77651 -0.0191518 6.48915C-0.0619731 8.20178 0.555106 9.86536 1.70445 11.1358C2.85379 12.4062 4.44745 13.1863 6.15581 13.3146C7.86416 13.443 9.5565 12.9098 10.8828 11.8254L15.0574 16.0001L16.0001 15.0574ZM6.66677 12.0001C5.61193 12.0001 4.58079 11.6873 3.70372 11.1012C2.82666 10.5152 2.14308 9.68224 1.73941 8.7077C1.33574 7.73316 1.23012 6.6608 1.43591 5.62624C1.6417 4.59167 2.14965 3.64136 2.89553 2.89548C3.64141 2.1496 4.59172 1.64165 5.62628 1.43586C6.66085 1.23008 7.7332 1.33569 8.70774 1.73936C9.68228 2.14303 10.5152 2.82662 11.1013 3.70368C11.6873 4.58074 12.0001 5.61189 12.0001 6.66672C11.9985 8.08072 11.4361 9.43635 10.4362 10.4362C9.4364 11.4361 8.08077 11.9985 6.66677 12.0001Z" fill="white"/>
</g>
<defs>
<clipPath id="clip0_0_66">
<rect width="16" height="16" fill="white"/>
</clipPath>
</defs>
</svg>
